<svg id="Layer_1" data-name="Layer 1" xmlns="http://www.w3.org/2000/svg" viewBox="0 0 320.36 264.24"><defs><style>.cls-1{fill:#8cc340;}.cls-2{fill:#221f1f;}</style></defs><title>Logo2</title><path class="cls-1" d="M7198.56,6856.66l.43,41.74-9,.08-.56-42a8.77,8.77,0,0,0-8.93-8.45h-.25l0-8.53a8.72,8.72,0,1,0,0-17.42l-4.76.08-.09-8.65,4.51-.08c10.1-.09,18.27,7.77,18.36,17.14a16.81,16.81,0,0,1-6.06,13A17.29,17.29,0,0,1,7198.56,6856.66Z" transform="translate(-7042.74 -6775.61)"/><rect class="cls-1" x="20.97" y="170.08" width="68.03" height="8"/><rect class="cls-1" x="229.07" y="78.04" width="43.02" height="8"/><rect class="cls-1" x="40.98" y="64.03" width="93.04" height="8"/><rect class="cls-1" x="123.02" y="114.05" width="20.01" height="9"/><polygon class="cls-1" points="157.03 64.03 182.7 64.03 186.05 72.03 157.03 72.03 157.03 64.03"/><path class="cls-1" d="M7062,6857.4c-.09-9.37,7.91-17.38,18-17.47l0,8.65a8.91,8.91,0,0,0-9,8.73,9.07,9.07,0,0,0,9.31,8.69,8.93,8.93,0,0,0,9-8.85l-.52-52.15a9.18,9.18,0,0,0-18.31.29l-9,.2c-.1-9.61,8-17.38,18-17.47s18.26,7.53,18.36,17.14l.52,51.91c.1,9.61-8,17.38-18,17.47S7062.07,6867,7062,6857.4Z" transform="translate(-7042.74 -6775.61)"/><path class="cls-1" d="M7043.24,6962.86a17.39,17.39,0,0,1,17.14-17.47l0,8.65a8.69,8.69,0,0,0-8.57,8.73,8.82,8.82,0,0,0,8.85,8.69,8.72,8.72,0,0,0,8.57-8.85l-.5-52.15a8.71,8.71,0,0,0-17.42.29l-8.53.2a17.3,17.3,0,0,1,34.61-.33l.49,51.91a17.3,17.3,0,1,1-34.61.33Z" transform="translate(-7042.74 -6775.61)"/><path class="cls-1" d="M7109,6883l-.52-52c-.09-9.49,7.91-17.38,18-17.47a18.47,18.47,0,0,1,13.7,5.76,18.79,18.79,0,0,1,13.58-5.89l17.25-.08.09,8.53-17.38.08a8.88,8.88,0,0,0-8.88,8.73l-9.09.08a8.85,8.85,0,0,0-9.18-8.57c-5.05,0-9.06,3.81-9,8.61l.4,52.15c0,4.81,4.25,8.61,9.31,8.57a8.83,8.83,0,0,0,9-8.73,9,9,0,0,0-9.06-8.69l-.21-8.53c10.1-.09,18.26,7.53,18.36,17.14s-8,17.38-18,17.47S7109.06,6892.46,7109,6883Z" transform="translate(-7042.74 -6775.61)"/><path class="cls-1" d="M7204.11,6866.19l23.8-.16c5.05-.17,9.05-4,9-8.73a8.67,8.67,0,0,0-.66-3.12l-37.13-78.47,9.73-.09,35.57,74.88a19.47,19.47,0,0,1,1.46,6.72c.09,9.37-7.91,17.26-17.89,17.35l-23.8.16Z" transform="translate(-7042.74 -6775.61)"/><path class="cls-1" d="M7249.87,6813.47c-.11-11,9-19.84,20.43-19.95l9.41-.19.1,9.74-9.55.19a10.31,10.31,0,0,0-10.14,9.83l.59,59.56a10.23,10.23,0,0,0,10.49,9.92c5.77-.05,10.48-4.62,10.43-10.11a10.17,10.17,0,0,0-10.34-9.79H7271l-.1-9.88c11.39-.1,20.86,8.73,21,19.57s-9,19.84-20.57,19.95-20.71-8.6-20.82-19.57Z" transform="translate(-7042.74 -6775.61)"/><path class="cls-1" d="M7328.31,6897.85l-9,.08-.69-87.5a9,9,0,0,0-9.05-8.45l-25.79.08-.09-8.65,25.54-.08c10-.09,18.26,7.52,18.36,17.13Z" transform="translate(-7042.74 -6775.61)"/><path class="cls-1" d="M7103.17,6912.18a16.12,16.12,0,0,1,12.1,5.35,16,16,0,0,1,28.11,10.22l.61,70.11-7.92.08-.61-70.33a8,8,0,0,0-8.11-7.74,8.15,8.15,0,0,0-8.07,8l-7.92.19v-.22a8,8,0,0,0-16.07.26l.61,70.22-8,.08-.61-70.11A16.12,16.12,0,0,1,7103.17,6912.18Z" transform="translate(-7042.74 -6775.61)"/><path class="cls-1" d="M7152.54,6889.71l8.53-.08.66,110.31a8.73,8.73,0,0,0,8.61,8.45l17.78-.17.08,8.53-17.54.17a17.23,17.23,0,0,1-17.47-17.14Z" transform="translate(-7042.74 -6775.61)"/><path class="cls-1" d="M7170.11,6986.19l28.52-.16a8.77,8.77,0,0,0,8.57-8.73,9,9,0,0,0-.63-3.12l-26-65.85,9.25-.09,24.51,62.26a20.31,20.31,0,0,1,1.39,6.72,17.26,17.26,0,0,1-17,17.35l-28.52.16Z" transform="translate(-7042.74 -6775.61)"/><path class="cls-1" d="M7246.12,6932.68l.41,105.32-8.44.08-.53-105.56a8.5,8.5,0,0,0-8.4-8.45h-.24l0-8.53a8.72,8.72,0,0,0,0-17.42l-25.26.08-.08-8.65,25-.08a17.33,17.33,0,0,1,11.58,30.18A17.71,17.71,0,0,1,7246.12,6932.68Z" transform="translate(-7042.74 -6775.61)"/><path class="cls-1" d="M7255.07,6989.82l22.91-.16a8.77,8.77,0,0,0,8.57-8.73,9,9,0,0,0-.63-3.12l-28.79-70.06,9.25-.09,27.31,66.47a20.31,20.31,0,0,1,1.39,6.72,17.26,17.26,0,0,1-17,17.35l-22.91.16Z" transform="translate(-7042.74 -6775.61)"/><path class="cls-1" d="M7314.4,6889.56l.08,8.65-14.5.16a8.69,8.69,0,0,0-8.57,8.73,9.05,9.05,0,0,0,.63,3.12l44.21,106.63-9.25.09-42.73-103a17.67,17.67,0,0,1-1.39-6.72,17.44,17.44,0,0,1,17-17.47Z" transform="translate(-7042.74 -6775.61)"/><path class="cls-1" d="M7337.15,6988.17l-8.53.08L7328,6922a17.24,17.24,0,0,1,34.49-.33l.66,66.29-8.65.08-.66-66.41a8.51,8.51,0,0,0-8.73-8.45,8.67,8.67,0,0,0-8.57,8.62Z" transform="translate(-7042.74 -6775.61)"/><path class="cls-2" d="M7055.86,7027.71h1.2l.12,12.14H7056l-.07-7.27-2.43,0v-1.21l2.43,0Z" transform="translate(-7042.74 -6775.61)"/><path class="cls-2" d="M7063.44,7038.59l2.43,0a1.23,1.23,0,0,0,1.2-1.23,1.2,1.2,0,0,0-.09-.44l-3.65-9.24h1.3l3.44,8.74a2.79,2.79,0,0,1,.19.94,2.42,2.42,0,0,1-2.39,2.43l-2.43,0Z" transform="translate(-7042.74 -6775.61)"/><path class="cls-2" d="M7074.32,7027.54h1.2l.07,7.62a2.49,2.49,0,0,1,1.23-.35,2.43,2.43,0,0,1,2.43,2.41l0,2.43h-1.2l0-2.45a1.22,1.22,0,0,0-1.22-1.19,1.23,1.23,0,0,0-1.22,1.21l0,2.45h-1.2Z" transform="translate(-7042.74 -6775.61)"/><path class="cls-2" d="M7086.61,7037.15a1.21,1.21,0,0,0,1.23,1.2,1.23,1.23,0,0,0,1.2-1.21l-.07-7.3a2.42,2.42,0,0,1,4.84,0l.09,9.7h-1.2l-.09-9.71a1.22,1.22,0,0,0-1.23-1.19,1.23,1.23,0,0,0-1.22,1.21l.07,7.3a2.41,2.41,0,0,1-2.39,2.43,2.44,2.44,0,0,1-2.45-2.39l-.07-7.28a2.43,2.43,0,0,1,2.41-2.44v1.2h0a1.22,1.22,0,0,0-1.17,1.21Z" transform="translate(-7042.74 -6775.61)"/><path class="cls-2" d="M7101.68,7029.69v0a1.24,1.24,0,0,0-1.21-1.19h-1.19v-1.2h1.16a2.41,2.41,0,0,1,1.84.81,2.39,2.39,0,0,1,1.8-.83,2.41,2.41,0,0,1,2.45,2.39l.09,9.73h-1.2l-.09-9.75a1.22,1.22,0,0,0-2.45,0v0Z" transform="translate(-7042.74 -6775.61)"/><path class="cls-2" d="M7117.48,7027.11v1.21l-2.43,0a1.22,1.22,0,0,0-1.2,1.23,1.28,1.28,0,0,0,.09.44l3.65,9.26h-1.3l-3.44-8.75a2.52,2.52,0,0,1-.19-.94,2.45,2.45,0,0,1,2.39-2.45Z" transform="translate(-7042.74 -6775.61)"/><path class="cls-2" d="M7124.87,7039.2h-1.2l-.09-9.7a2.42,2.42,0,0,1,4.84,0l.09,9.7h-1.21l-.09-9.71a1.19,1.19,0,0,0-1.22-1.19,1.22,1.22,0,0,0-1.2,1.21Z" transform="translate(-7042.74 -6775.61)"/><path class="cls-2" d="M7148.56,7039h-1.2l0-2.45a1.22,1.22,0,0,0-1.21-1.19l0-1.21a1.21,1.21,0,0,0,1.2-1.23,1.19,1.19,0,0,0-.09-.42l-2.21-5.63h1.3l2,5.11a2.83,2.83,0,0,1,.19.94,2.43,2.43,0,0,1-.81,1.83,2.38,2.38,0,0,1,.84,1.81Z" transform="translate(-7042.74 -6775.61)"/><path class="cls-2" d="M7154.79,7026.77h1.2l.07,7.62a2.49,2.49,0,0,1,1.23-.35,2.43,2.43,0,0,1,2.43,2.41l0,2.43h-1.2l0-2.45a1.22,1.22,0,0,0-1.22-1.19,1.23,1.23,0,0,0-1.22,1.21l0,2.45h-1.2Z" transform="translate(-7042.74 -6775.61)"/><path class="cls-2" d="M7168.21,7026.65a2.42,2.42,0,0,0,3.64,0,2.41,2.41,0,0,1,2.43,2.39l.09,9.7h-1.2l-.09-9.73a1.22,1.22,0,0,0-1.23-1.17,1.23,1.23,0,0,0-1.22,1.21l-1.2,0v0a1.22,1.22,0,0,0-2.43,0l.09,9.71h-1.21l-.09-9.7A2.44,2.44,0,0,1,7168.21,7026.65Z" transform="translate(-7042.74 -6775.61)"/><path class="cls-2" d="M7185.27,7028.9a2.41,2.41,0,0,1-2,2.4l-.43-1.14a1.21,1.21,0,0,0,1.19-1.24,1.22,1.22,0,0,0-2.45,0,1.14,1.14,0,0,0,.09.42l3.65,9.28h-1.28l-3.46-8.75a2.52,2.52,0,0,1-.19-.94,2.42,2.42,0,1,1,4.84,0Z" transform="translate(-7042.74 -6775.61)"/><path class="cls-2" d="M7192.93,7028.82v0a1.24,1.24,0,0,0-1.21-1.19h-1.2v-1.2h1.16a2.41,2.41,0,0,1,1.84.81,2.39,2.39,0,0,1,1.8-.83,2.41,2.41,0,0,1,2.45,2.39l.09,9.73h-1.2l-.09-9.75a1.22,1.22,0,0,0-2.45,0v0Z" transform="translate(-7042.74 -6775.61)"/><path class="cls-2" d="M7206.22,7026.29h1.2l.12,12.14h-1.2l-.07-7.27-2.43,0V7030l2.43,0Z" transform="translate(-7042.74 -6775.61)"/><path class="cls-2" d="M7213.83,7032.28a2.42,2.42,0,0,1,1.81-2.38l0-3.71h1.22l0,4.84h-.66a1.22,1.22,0,0,0-1.18,1.21l0,3.69a1.23,1.23,0,0,0,1.24,1.18,1.21,1.21,0,0,0,1.2-1.19l0-3.68h1.21l0,3.64a2.43,2.43,0,1,1-4.86,0Z" transform="translate(-7042.74 -6775.61)"/><path class="cls-2" d="M7226.29,7038.24h-1.2l-.09-9.7a2.42,2.42,0,0,1,4.84,0l.09,9.7h-1.21l-.09-9.71a1.19,1.19,0,0,0-1.22-1.19,1.22,1.22,0,0,0-1.2,1.21Z" transform="translate(-7042.74 -6775.61)"/></svg>